<svg width="360" height="72" viewBox="0 0 360 72" fill="none" xmlns="http://www.w3.org/2000/svg">
<path d="M0 0H360V64H14.4385L0 47.5V0Z" fill="#F8EF00"/>
<line x1="358.973" x2="358.973" y2="64" stroke="#FF003C" stroke-width="2"/>
<path d="M42.656 38L40.88 36.224V27.984L42.656 26.208H48.464L50.176 27.904L48.592 29.424L47.36 28.224H44.016L43.376 28.848V35.344L44.016 35.984H47.488L48.704 34.784L50.288 36.304L48.592 38H42.656ZM56.6216 38L54.8456 36.224V27.984L56.6216 26.208H62.9576L64.7496 27.984V36.224L62.9576 38H56.6216ZM57.9816 35.984H61.6136L62.2536 35.344V28.848L61.5976 28.224H57.9816L57.3416 28.848V35.344L57.9816 35.984ZM70.0219 38V26.208H77.2859L79.0619 27.984V32.336L77.2859 34.112H72.5179V38H70.0219ZM72.5179 32.096H75.9739L76.6139 31.472V28.848L75.9739 28.224H72.5179V32.096ZM86.6495 38V33.776L86.0575 33.264L82.6175 26.208H85.4815L87.6575 31.504H88.1375L90.2975 26.208H93.1615L89.7215 33.264L89.1295 33.776V38H86.6495ZM104.669 38V26.208H111.933L113.709 27.984V32.336L111.933 34.112H107.165V38H104.669ZM107.165 32.096H110.621L111.261 31.472V28.848L110.621 28.224H107.165V32.096ZM116.296 38L119.944 26.208H123.864L127.512 38H124.872L124.136 35.392H119.672L118.952 38H116.296ZM120.248 33.36H123.56L122.152 28.288H121.672L120.248 33.36ZM131.663 38V35.888H137.663L138.287 35.248V33.6L137.663 32.96L133.007 32.976L131.231 31.184V27.984L133.007 26.208H140.127V28.32H134.335L133.711 28.96V30.256L134.335 30.896H138.991L140.767 32.672V36.224L138.991 38H131.663ZM145.644 38V35.888H151.644L152.268 35.248V33.6L151.644 32.96L146.988 32.976L145.212 31.184V27.984L146.988 26.208H154.108V28.32H148.316L147.692 28.96V30.256L148.316 30.896H152.972L154.748 32.672V36.224L152.972 38H145.644ZM161.269 38L158.661 26.208H161.445L163.013 35.92H163.493L165.077 26.208H167.509L169.093 35.92H169.557L171.141 26.208H173.925L171.317 38H167.429L166.293 31.552L165.157 38H161.269ZM179.687 38L177.911 36.224V27.984L179.687 26.208H186.023L187.815 27.984V36.224L186.023 38H179.687ZM181.047 35.984H184.679L185.319 35.344V28.848L184.663 28.224H181.047L180.407 28.848V35.344L181.047 35.984ZM193.087 38V26.208H200.543L202.319 27.984V32.048L200.831 33.52L202.735 38H200.095L198.399 33.824H195.583V38H193.087ZM195.583 31.808H199.231L199.871 31.184L199.855 28.848L199.231 28.224H195.583V31.808ZM207.772 38V26.208H215.02L217.484 28.672V35.536L215.02 38H207.772ZM210.268 35.984H213.9L215.036 34.848V29.344L213.9 28.224H210.268V35.984ZM221.779 40.864V39.008H230.771V40.864H221.779Z" fill="black"/>
<path d="M308.562 25.25L315.312 32L308.562 38.75M314.375 32H300.688" stroke="black" stroke-width="2" stroke-miterlimit="10" stroke-linecap="square"/>
<rect x="302" y="56" width="38" height="8" fill="black"/>
<g filter="url(#filter0_d_42_482)">
<line x1="303" y1="56" x2="303" y2="64" stroke="#FF003C" stroke-width="2"/>
</g>
<path d="M313.016 63C312.968 63 312.936 62.9813 312.92 62.944L311.744 60.464C311.739 60.448 311.728 60.44 311.712 60.44H310.352C310.331 60.44 310.32 60.4507 310.32 60.472V62.92C310.32 62.9733 310.293 63 310.24 63H309.832C309.779 63 309.752 62.9733 309.752 62.92V57.48C309.752 57.4267 309.779 57.4 309.832 57.4H311.904C312.363 57.4 312.733 57.544 313.016 57.832C313.299 58.1147 313.44 58.4853 313.44 58.944C313.44 59.3173 313.339 59.6347 313.136 59.896C312.933 60.1573 312.659 60.3253 312.312 60.4C312.291 60.4107 312.285 60.424 312.296 60.44L313.496 62.904C313.501 62.9147 313.504 62.928 313.504 62.944C313.504 62.9813 313.483 63 313.44 63H313.016ZM310.352 57.896C310.331 57.896 310.32 57.9067 310.32 57.928V59.952C310.32 59.9733 310.331 59.984 310.352 59.984H311.84C312.149 59.984 312.4 59.888 312.592 59.696C312.784 59.504 312.88 59.2533 312.88 58.944C312.88 58.6347 312.784 58.384 312.592 58.192C312.4 57.9947 312.149 57.896 311.84 57.896H310.352ZM316.714 62.464C316.698 62.4907 316.704 62.504 316.73 62.504H319.242C319.296 62.504 319.322 62.5307 319.322 62.584V62.92C319.322 62.9733 319.296 63 319.242 63H316.05C315.997 63 315.97 62.9733 315.97 62.92V62.584C315.97 62.5467 315.984 62.5147 316.01 62.488C316.192 62.2747 316.6 61.7733 317.234 60.984L317.826 60.248C318.328 59.6133 318.578 59.12 318.578 58.768C318.578 58.4853 318.482 58.2587 318.29 58.088C318.098 57.9173 317.848 57.832 317.538 57.832C317.234 57.832 316.989 57.92 316.802 58.096C316.616 58.2667 316.525 58.4933 316.53 58.776V59.024C316.53 59.0773 316.504 59.104 316.45 59.104H316.034C315.981 59.104 315.954 59.0773 315.954 59.024V58.704C315.965 58.2933 316.117 57.9627 316.41 57.712C316.709 57.4613 317.085 57.336 317.538 57.336C317.858 57.336 318.141 57.3973 318.386 57.52C318.632 57.6427 318.821 57.8133 318.954 58.032C319.088 58.2453 319.154 58.488 319.154 58.76C319.154 59.2133 318.904 59.76 318.402 60.4C318.141 60.736 317.637 61.3547 316.89 62.256L316.714 62.464ZM325.027 60.552C325.075 60.7867 325.099 61.0267 325.099 61.272C325.099 61.5333 325.075 61.7573 325.027 61.944C324.937 62.2853 324.755 62.5573 324.484 62.76C324.212 62.9573 323.883 63.056 323.499 63.056C323.121 63.056 322.798 62.96 322.531 62.768C322.265 62.576 322.083 62.32 321.987 62C321.95 61.8827 321.926 61.7653 321.915 61.648V61.632C321.915 61.5893 321.939 61.568 321.987 61.568H322.411C322.465 61.568 322.494 61.5947 322.499 61.648C322.499 61.68 322.51 61.7333 322.531 61.808C322.585 62.0373 322.694 62.2213 322.859 62.36C323.03 62.4933 323.241 62.56 323.491 62.56C323.747 62.56 323.961 62.488 324.132 62.344C324.307 62.2 324.422 62.0027 324.475 61.752C324.507 61.6293 324.523 61.4693 324.523 61.272C324.523 61.0907 324.51 60.9173 324.484 60.752C324.446 60.5067 324.339 60.32 324.163 60.192C323.987 60.064 323.769 60 323.507 60C323.273 60 323.062 60.0533 322.875 60.16C322.689 60.2667 322.569 60.408 322.515 60.584C322.499 60.632 322.47 60.656 322.427 60.656H321.995C321.942 60.656 321.915 60.6293 321.915 60.576V57.48C321.915 57.4267 321.942 57.4 321.995 57.4H324.796C324.849 57.4 324.875 57.4267 324.875 57.48V57.816C324.875 57.8693 324.849 57.896 324.796 57.896H322.515C322.494 57.896 322.483 57.9067 322.483 57.928L322.475 59.864C322.475 59.8747 322.478 59.8827 322.483 59.888C322.494 59.8933 322.505 59.8907 322.515 59.88C322.649 59.7573 322.806 59.664 322.987 59.6C323.169 59.5307 323.361 59.496 323.563 59.496C323.942 59.496 324.262 59.5893 324.523 59.776C324.785 59.9573 324.953 60.216 325.027 60.552Z" fill="#F8EF00"/>
<defs>
<filter id="filter0_d_42_482" x="298" y="56" width="10" height="16" filterUnits="userSpaceOnUse" color-interpolation-filters="sRGB">
<feFlood flood-opacity="0" result="BackgroundImageFix"/>
<feColorMatrix in="SourceAlpha" type="matrix" values="0 0 0 0 0 0 0 0 0 0 0 0 0 0 0 0 0 0 127 0" result="hardAlpha"/>
<feOffset dy="4"/>
<feGaussianBlur stdDeviation="2"/>
<feComposite in2="hardAlpha" operator="out"/>
<feColorMatrix type="matrix" values="0 0 0 0 0 0 0 0 0 0 0 0 0 0 0 0 0 0 0.25 0"/>
<feBlend mode="normal" in2="BackgroundImageFix" result="effect1_dropShadow_42_482"/>
<feBlend mode="normal" in="SourceGraphic" in2="effect1_dropShadow_42_482" result="shape"/>
</filter>
</defs>
</svg>
